# xmcd
#
# Track frame offsets:
#	150
#	17188
#	32251
#	50046
#	65218
#	77449
#	95924
#	113964
#	133956
#	151530
#	164753
#	183084
#	206302
#	224849
#	242405
#	263113
#	284479
#	307821
#
# Disc length: 4352 seconds
#
# Revision: 0
# Processed by: cddbd v1.5.2PL0 Copyright (c) Steve Scherf et al.
# Submitted via: EasyCDDAExtractor 15.2.5.1
#
DISCID=0210fe12
DTITLE=Alan Jackson - 34 Number Ones 2
DYEAR=2010
DGENRE=
TTITLE0=As she's Walking Away
TTITLE1=Look At Me
TTITLE2=I'll try
TTITLE3=Home
TTITLE4=Little Bitty
TTITLE5=Who's Cheatin' Who
TTITLE6=There Goes
TTITLE7=Between The Devil And Me
TTITLE8=Right On The Money
TTITLE9=It Must Be Love
TTITLE10=Where I Come From
TTITLE11=Where Were You
TTITLE12=Drive
TTITLE13=It's Five O'Clock Somewhere
TTITLE14=Remember When
TTITLE15=Small Town Southern Man
TTITLE16=Good Time
TTITLE17=Country Boy
EXTD=
EXTT0=
EXTT1=
EXTT2=
EXTT3=
EXTT4=
EXTT5=
EXTT6=
EXTT7=
EXTT8=
EXTT9=
EXTT10=
EXTT11=
EXTT12=
EXTT13=
EXTT14=
EXTT15=
EXTT16=
EXTT17=
PLAYORDER=
